<?xml version="1.0" encoding="utf-8"?>
<!-- Generator: Adobe Illustrator 21.0.0, SVG Export Plug-In . SVG Version: 6.00 Build 0)  -->
<svg version="1.1" id="Layer_1" xmlns="http://www.w3.org/2000/svg" xmlns:xlink="http://www.w3.org/1999/xlink" x="0px" y="0px"
	 viewBox="0 0 656.1 656.1" style="enable-background:new 0 0 656.1 656.1;" xml:space="preserve">
<style type="text/css">
	.st0{fill:#FFFFFF;}
</style>
<g>
	<rect x="153.8" y="260.7" class="st0" width="30.9" height="133.5"/>
	<path class="st0" d="M413.6,261.3c-9.5-0.1-17.4,7.6-17.4,17.3c0,9.2,7.7,16.9,17.1,16.9c10.4,0,18.4-9,17-19.2
		C429.2,267.9,422.1,261.4,413.6,261.3z"/>
	<polygon class="st0" points="398,309.6 398,309.6 398,394.3 398,394.3 429,394.3 429,394.3 429,309.6 429,309.6 	"/>
	<path class="st0" d="M253.7,302.8v91.7h31.2v-52.2h25.8v-26.5h-25.8v-12.5c0-12.8,9.1-15.8,16-15.8c5.1,0,8.1,0.7,9.8,1.2v-26
		c-2.6-1.2-8.8-2.3-15.3-2.3C270,260.3,253.7,277.1,253.7,302.8z"/>
	<path class="st0" d="M379.4,298.5h-22.9c0,0-0.1,0-0.1-0.1V261c0,0-0.1-0.1-0.1-0.1h-30.6c0,0,0,0,0,0.1v15.5c0,10.2,0,45.1,0,45.1
		v38.7c0,22.1,14,35.3,36.3,35.3c9,0,14.6-1.6,17.4-2.8c0,0,0,0,0-0.1v-25.4c0-0.1,0-0.1-0.1-0.1c-1.7,0.5-5.8,0.9-9.4,0.9
		c-8.8,0-13.5-3.3-13.5-13.2V326c0,0,0.1-0.1,0.1-0.1h22.9c0,0,0,0,0-0.1L379.4,298.5C379.5,298.5,379.4,298.5,379.4,298.5z"/>
	<path class="st0" d="M483.6,395.5c9,0,14.5-1.6,17.3-2.7c0.1,0,0.1-0.1,0.1-0.2v-25.2c0-0.1-0.1-0.2-0.2-0.2
		c-1.8,0.4-5.8,0.9-9.3,0.9c-8.8,0-13.5-3.3-13.5-13.2v-27.3c0-0.1,0.1-0.2,0.2-0.2h22.7c0.1,0,0.2-0.1,0.2-0.2v-27
		c0-0.1-0.1-0.2-0.2-0.2h-22.7c-0.1,0-0.2-0.1-0.2-0.2v-38.8c0-0.1-0.1-0.2-0.2-0.2h-30.3c-0.1,0-0.2,0.1-0.2,0.2v15.4
		c0,10.2,0,45.1,0,45.1v38.7C447.3,382.3,461.3,395.5,483.6,395.5z"/>
	<rect x="204.2" y="310.8" class="st0" width="30.9" height="83.5"/>
	<path class="st0" d="M219.9,261.3c-9.5-0.1-17.4,7.6-17.4,17.3c0,9.2,7.7,16.9,17.1,16.9c10.4,0,18.4-9,17-19.2
		C235.4,267.9,228.3,261.4,219.9,261.3z"/>
	<path class="st0" d="M628.3,290.5C607.8,141.3,480.6,27.2,332.4,25.1c-82.4-1.2-159.6,30.6-218,89.3c-57.6,57.9-89.3,135-89.3,217
		c0,162.2,138.8,299.3,303,299.3c0.2,0,0.3,0,0.5,0v0.3c55.8-0.2,109.6-15.4,156.1-43.2c28-16.7,53.4-38,75-63.4
		C614.8,459.8,639.8,374.5,628.3,290.5z M47.6,331.5c0-75.8,29.3-147.1,82.6-200.7C183.3,77.3,253.4,48.1,328,48.1
		c1.3,0,2.7,0,4.1,0h0C469.3,50,587.1,155.6,606,293.7c0.1,0.4,0.1,0.8,0.1,1.2h-0.5c10.3,77.1-12.8,155.3-63.4,214.7
		c-19.9,23.3-43.3,43-69,58.4c-43.2,25.8-93.2,39.8-145.1,39.8C176,607.8,47.6,481.3,47.6,331.5z"/>
</g>
</svg>
